<svg xmlns="http://www.w3.org/2000/svg" width="18.374" height="21.388" viewBox="0 0 18.374 21.388">
  <g id="Group_424" data-name="Group 424" transform="translate(-20.675 -277.565)">
    <path id="Path_111" data-name="Path 111" d="M24.416,25.254H10.488c-1.36,0-1.956,0-2.189-.6-.2-.531.232-.9.663-1.26a6.932,6.932,0,0,0,2.852-5.77c0-6.234,4.178-7.627,5.637-7.627s5.637,1.393,5.637,7.627a7.013,7.013,0,0,0,2.819,5.77c.464.365.862.73.663,1.26C26.372,25.254,25.775,25.254,24.416,25.254ZM10.388,23.928H24.515a8.038,8.038,0,0,1-2.752-6.3c0-6.035-4.278-6.3-4.311-6.3s-4.311.265-4.311,6.3A8.038,8.038,0,0,1,10.388,23.928Z" transform="translate(12.426 269.72)" fill="#373f40"/>
    <path id="Path_112" data-name="Path 112" d="M28.689,61.27a3.478,3.478,0,0,1-3.615-2.52.664.664,0,0,1,1.293-.3,2.249,2.249,0,0,0,2.354,1.459,2.168,2.168,0,0,0,2.321-1.459.664.664,0,1,1,1.293.3A3.524,3.524,0,0,1,28.689,61.27Z" transform="translate(1.188 237.684)" fill="#373f40"/>
    <path id="Path_113" data-name="Path 113" d="M34.663,7.316A.665.665,0,0,1,34,6.653V4.663a.663.663,0,1,1,1.326,0v1.99A.665.665,0,0,1,34.663,7.316Z" transform="translate(-4.786 273.565)" fill="#373f40"/>
  </g>
</svg>
