<svg xmlns="http://www.w3.org/2000/svg" width="21.674" height="28.732" viewBox="0 0 21.674 28.732">
  <g id="Path_69" data-name="Path 69" fill="none">
    <path d="M21.625,28.732H2.206A2.254,2.254,0,0,1,0,26.459V2.2A2.2,2.2,0,0,1,2.206,0H21.625V23.731H3.281a1.558,1.558,0,1,0,0,3.114H21.674Z" stroke="none"/>
    <path d="M 2.000003576278687 21.96469497680664 C 2.398104429244995 21.81371688842773 2.830031394958496 21.7309627532959 3.281103372573853 21.7309627532959 L 19.62544441223145 21.7309627532959 L 19.62544441223145 2.425732851028442 L 19.62544441223145 2.00000262260437 L 2.206413507461548 2.00000262260437 C 2.088743448257446 2.00000262260437 2.000003576278687 2.086852788925171 2.000003576278687 2.202022790908813 L 2.000003576278687 21.96469497680664 M 21.62544441223145 28.73156356811523 L 2.206413507461548 28.73156356811523 C 0.9825735092163086 28.73156356811523 3.490600647637621e-06 27.68758201599121 3.490600647637621e-06 26.4593620300293 L 3.490600647637621e-06 2.202022790908813 C 3.490600647637621e-06 0.9825727343559265 0.9825735092163086 2.737731847446412e-06 2.206413507461548 2.737731847446412e-06 L 21.62544441223145 2.737731847446412e-06 L 21.62544441223145 2.425732851028442 L 21.62544441223145 23.7309627532959 L 3.281103372573853 23.7309627532959 C 2.399413585662842 23.7309627532959 1.688803434371948 24.4064826965332 1.688803434371948 25.28816223144531 C 1.688803434371948 26.16985321044922 2.399413585662842 26.84537315368652 3.281103372573853 26.84537315368652 L 21.67368316650391 26.84537315368652 L 21.62544441223145 28.73156356811523 Z" stroke="none" fill="#fff"/>
  </g>
</svg>
