<svg xmlns="http://www.w3.org/2000/svg" width="296" height="210" viewBox="0 0 296 210">
  <g id="Group_341" data-name="Group 341" transform="translate(-40 -348)">
    <circle id="Ellipse_7" data-name="Ellipse 7" cx="105" cy="105" r="105" transform="translate(83 348)" fill="#87a7d5" opacity="0.674"/>
    <g id="Group_38" data-name="Group 38" transform="translate(9.196 12.385)">
      <path id="Path_62" data-name="Path 62" d="M108.221,50.335c-6.04,0-10.57,4.027-12.08,9.564l-10.57-.5c-.5-6.544-3.02-12.584-7.55-16.611l14.6-18.624a18.1,18.1,0,0,0,5.537,1.007,12.462,12.462,0,0,0,12.584-12.584,12.584,12.584,0,1,0-25.168,0,11.431,11.431,0,0,0,3.02,8.054l-14.6,18.624A25.315,25.315,0,0,0,60.4,35.235a25.809,25.809,0,0,0-17.114,6.544L23.154,23.658c1.51-1.51,2.013-3.523,2.013-6.04A12.462,12.462,0,0,0,12.584,5.034,12.462,12.462,0,0,0,0,17.617,12.462,12.462,0,0,0,12.584,30.2a12.364,12.364,0,0,0,7.55-2.517L40.268,45.805a24.359,24.359,0,0,0-5.034,14.6,25.315,25.315,0,0,0,4.027,13.591L20.637,88.59a11.431,11.431,0,0,0-8.054-3.02,12.584,12.584,0,1,0,0,25.168A12.462,12.462,0,0,0,25.168,98.154a10.147,10.147,0,0,0-1.51-5.537l18.624-14.6A25.9,25.9,0,0,0,60.4,85.57a23.382,23.382,0,0,0,11.577-3.02l7.55,11.577a12.6,12.6,0,0,0-4.027,9.06A12.584,12.584,0,1,0,88.087,90.6a14.7,14.7,0,0,0-4.53,1.007l-7.55-11.577a24.992,24.992,0,0,0,9.06-15.6l10.57.5a12.659,12.659,0,1,0,12.584-14.6ZM98.154,5.034a7.741,7.741,0,0,1,7.55,7.55,7.55,7.55,0,1,1-15.1,0A7.741,7.741,0,0,1,98.154,5.034ZM12.584,25.168a7.741,7.741,0,0,1-7.55-7.55,7.741,7.741,0,0,1,7.55-7.55,7.741,7.741,0,0,1,7.55,7.55A7.741,7.741,0,0,1,12.584,25.168Zm0,80.536a7.55,7.55,0,1,1,0-15.1,7.55,7.55,0,1,1,0,15.1Zm75.5-10.067a7.55,7.55,0,1,1-7.55,7.55A7.741,7.741,0,0,1,88.087,95.637ZM60.4,80.536A20.134,20.134,0,1,1,80.536,60.4,20.193,20.193,0,0,1,60.4,80.536Zm47.819-10.067a7.55,7.55,0,1,1,7.55-7.55A7.741,7.741,0,0,1,108.221,70.469Z" transform="translate(117.804 362.229)" fill="#fff"/>
      <circle id="Ellipse_5" data-name="Ellipse 5" cx="22.373" cy="22.373" r="22.373" transform="translate(155.834 399.893)" fill="#fff"/>
    </g>
    <text id="Ментальные_карты" data-name="Ментальные
карты" transform="translate(40 502)" fill="#fff" font-size="16" font-family="ArialMT, Arial"><tspan x="100.902" y="14">Ментальные</tspan><tspan x="126.188" y="32">карты</tspan></text>
  </g>
</svg>
