<svg xmlns="http://www.w3.org/2000/svg" width="21.867" height="22.889" viewBox="0 0 21.867 22.889">
  <g id="Group_533" data-name="Group 533" transform="translate(-330.929 -15.999)">
    <path id="Path_3" data-name="Path 3" d="M29.378,61.9a4.139,4.139,0,0,1-4.3-3,.79.79,0,0,1,1.539-.355,2.677,2.677,0,0,0,2.8,1.736A2.581,2.581,0,0,0,32.18,58.55a.79.79,0,0,1,1.539.355A4.193,4.193,0,0,1,29.378,61.9Z" transform="translate(312.502 -23.016)" fill="#fff"/>
    <path id="Path_2" data-name="Path 2" d="M27.488,28.153H10.913c-1.618,0-2.328,0-2.6-.71-.237-.631.276-1.066.789-1.5a8.249,8.249,0,0,0,3.394-6.867C12.492,11.657,17.464,10,19.2,10s6.709,1.657,6.709,9.077a8.346,8.346,0,0,0,3.354,6.867c.552.434,1.026.868.789,1.5C29.817,28.153,29.106,28.153,27.488,28.153ZM10.8,26.575H27.607a9.565,9.565,0,0,1-3.275-7.5c0-7.182-5.091-7.5-5.13-7.5s-5.13.316-5.13,7.5A9.565,9.565,0,0,1,10.8,26.575Z" transform="translate(322.68 5.999)" fill="#fff"/>
  </g>
</svg>
