<svg xmlns="http://www.w3.org/2000/svg" width="22.917" height="16.738" viewBox="0 0 22.917 16.738">
  <g id="Group_393" data-name="Group 393" transform="translate(-2.765 5.895)">
    <g id="Group_426" data-name="Group 426" transform="translate(0 -14)">
      <path id="Path_116" data-name="Path 116" d="M17.853,17.492a5.078,5.078,0,1,0-5.306,0c-3.136.7-5.335,2.621-5.335,4.943,0,1.9,5.021,2.407,7.989,2.407s7.987-.507,7.987-2.407C23.188,20.113,20.989,18.195,17.853,17.492Z" transform="translate(2.494)" fill="#373f40"/>
      <g id="Group_425" data-name="Group 425">
        <path id="Path_115" data-name="Path 115" d="M13.406,17.492a5.078,5.078,0,1,0-5.306,0c-3.136.7-5.335,2.621-5.335,4.943,0,1.9,5.021,2.407,7.987,2.407s7.989-.507,7.989-2.407C18.741,20.113,16.54,18.195,13.406,17.492Z" fill="#373f40"/>
        <path id="Path_117" data-name="Path 117" d="M9.747,12.8a4.032,4.032,0,1,1,4.032,4.024A4.033,4.033,0,0,1,9.747,12.8Z" transform="translate(3.916 0.376)" fill="#fff"/>
        <path id="Path_118" data-name="Path 118" d="M14.825,20.152c-4.266,0-6.818-.9-6.943-1.366,0-2.307,3.117-4.183,6.943-4.183s6.937,1.876,6.941,4.183C21.645,19.251,19.093,20.152,14.825,20.152Z" transform="translate(2.87 3.645)" fill="#fff"/>
      </g>
    </g>
  </g>
</svg>
