<svg xmlns="http://www.w3.org/2000/svg" width="35.261" height="29.677" viewBox="0 0 35.261 29.677">
  <g id="Group_385" data-name="Group 385" transform="translate(-4.824 -4.688)">
    <path id="Path_109" data-name="Path 109" d="M20.391,15.671A2.024,2.024,0,0,0,17.8,16.892L16.6,20.265l-.118-2.08L20.305,7.559a1.514,1.514,0,0,0-2.776-1.194L12.167,16.984a1.788,1.788,0,0,0-.184.768l.026,7.987L7.081,28.325a2.795,2.795,0,1,0,2.6,4.948l9.109-4.784.21-.112a2.313,2.313,0,0,0,1.194-1.654L21.7,17.9A2.02,2.02,0,0,0,20.391,15.671Z" transform="translate(0 0)" fill="none" stroke="#fff" stroke-miterlimit="10" stroke-width="1.5"/>
    <path id="Path_110" data-name="Path 110" d="M286.132,28.331,281.2,25.745l.026-7.987a1.678,1.678,0,0,0-.184-.768L275.683,6.365a1.514,1.514,0,0,0-2.776,1.194l3.826,10.625-.118,2.08-1.208-3.373a2.023,2.023,0,0,0-3.9,1.024l1.509,8.821a2.3,2.3,0,0,0,1.194,1.654l.21.112,9.109,4.784a2.8,2.8,0,0,0,2.6-4.955Z" transform="translate(-248.448 0)" fill="none" stroke="#fff" stroke-miterlimit="10" stroke-width="1.5"/>
  </g>
</svg>
