<svg xmlns="http://www.w3.org/2000/svg" width="28.69" height="28.689" viewBox="0 0 28.69 28.689">
  <path id="Path_72" data-name="Path 72" d="M26.5,17.533c.073.334.145.653.2.987l.464-1.741c-.218.261-.435.508-.667.754Zm-3.207-7.2a20.423,20.423,0,0,1,2.815,5.789A20.692,20.692,0,0,0,27.4,14.443,13.161,13.161,0,0,0,25.162,6.97a2.566,2.566,0,0,0-.232-.319A19.53,19.53,0,0,1,23.29,10.337Zm1.857,6.834a19.449,19.449,0,0,0-2.554-5.7,22,22,0,0,1-2.017,2.583,20.344,20.344,0,0,1,3.41,4.193C24.393,17.911,24.77,17.548,25.148,17.171Zm.595,3.5a20.876,20.876,0,0,0-.276-2.1c-.276.261-.566.522-.871.769a19.139,19.139,0,0,1,.856,1.828A5.5,5.5,0,0,0,25.743,20.667ZM14.527,23.9a18.786,18.786,0,0,0,2.51,3.207,13.147,13.147,0,0,0,7.589-4.745,22.674,22.674,0,0,0-.987-2.263A20.56,20.56,0,0,1,14.527,23.9ZM12.5,19.463a18.755,18.755,0,0,0,1.378,3.308,19.475,19.475,0,0,0,9.156-3.729,19.377,19.377,0,0,0-3.308-4.092A20.942,20.942,0,0,1,12.5,19.463Zm-.609-9.01a19.455,19.455,0,0,0,.276,7.821,19.391,19.391,0,0,0,6.631-4.15A19.239,19.239,0,0,0,11.886,10.453Zm2.133-6.109a18.927,18.927,0,0,0-1.886,4.9,20.716,20.716,0,0,1,7.53,3.99,18.92,18.92,0,0,0,2.176-2.844A19.586,19.586,0,0,0,14.019,4.344ZM16.108,1.3a21.216,21.216,0,0,0-1.465,1.988,20.661,20.661,0,0,1,7.835,5.978A19.178,19.178,0,0,0,24,5.49,13.025,13.025,0,0,0,16.108,1.3Zm-5.122.8c.247-.232.508-.45.754-.667a12.588,12.588,0,0,0-1.756.479A7.193,7.193,0,0,1,10.986,2.1ZM6.358,8.45a20.873,20.873,0,0,1,3.6-5.325,20.345,20.345,0,0,0-2.1-.276c-.3.174-.609.348-.9.551a13.166,13.166,0,0,0-4.614,5.47A21,21,0,0,1,6.358,8.45ZM4.573,19.463A20.515,20.515,0,0,1,5.835,9.684,19.431,19.431,0,0,0,1.8,10.25,13.073,13.073,0,0,0,2.121,19.2,17.819,17.819,0,0,0,4.573,19.463Zm.406,2.365c-.087-.377-.16-.754-.232-1.132a18.644,18.644,0,0,1-2-.174c.087.174.189.334.276.493A19.2,19.2,0,0,0,4.979,21.828Zm.711,2.365c-.116-.319-.218-.638-.319-.958-.319-.1-.638-.2-.958-.319A11.788,11.788,0,0,0,5.69,24.193Zm1.088-.58a19.2,19.2,0,0,0,.813,1.959,13.111,13.111,0,0,0,4.164,1.582,13.576,13.576,0,0,0,3.816.189,19.852,19.852,0,0,1-2.38-3.279A20.439,20.439,0,0,1,6.779,23.613ZM6,20.7c.1.522.218,1.045.363,1.553a19.647,19.647,0,0,0,6.21.638,21.253,21.253,0,0,1-1.233-3.047A19.938,19.938,0,0,1,6,20.7ZM7.156,9.684a19.423,19.423,0,0,0-1.349,9.794A19.328,19.328,0,0,0,11,18.665a20.559,20.559,0,0,1-.3-8.517A19.4,19.4,0,0,0,7.156,9.684ZM11.349,3.43A19.5,19.5,0,0,0,7.693,8.494a20.16,20.16,0,0,1,3.25.464,20.367,20.367,0,0,1,1.93-5.049A13.28,13.28,0,0,0,11.349,3.43Zm2.728-2.263a19.956,19.956,0,0,0-1.683,1.291c.363.116.74.232,1.1.363.348-.566.74-1.117,1.146-1.654ZM11.523,28.358A14.342,14.342,0,1,1,28.354,17.04,14.336,14.336,0,0,1,11.523,28.358Z" transform="translate(0.065 0.061)" fill="#fff"/>
</svg>
